<svg width="1000" height="1000" viewBox="0 0 1000 1000" fill="none" xmlns="http://www.w3.org/2000/svg">
<path d="M0 200C0 89.543 89.5431 0 200 0H800C910.457 0 1000 89.5431 1000 200V800C1000 910.457 910.457 1000 800 1000H200C89.543 1000 0 910.457 0 800V200Z" fill="white"/>
<path d="M150 266.764C150 202.277 202.277 150 266.763 150H500C693.299 150 850 306.7 850 500C850 693.3 693.299 850 500 850H266.763C260.814 850 254.968 849.555 249.258 848.697C329.341 792.445 406.08 706.663 465.346 599.697L499.886 634.237C521.659 656.01 558.838 646.048 566.807 616.305L616.119 432.272C624.089 402.529 596.872 375.312 567.129 383.282L383.096 432.593C353.353 440.563 343.391 477.741 365.164 499.515L401.054 535.404C364.924 565.38 324.594 593.412 280.628 618.496C237.384 643.167 193.476 663.359 150 679.094V266.764Z" fill="#0F6BFD"/>
</svg>
